<svg width="12" height="12" viewBox="0 0 12 12" fill="none" xmlns="http://www.w3.org/2000/svg">
<path d="M8.33337 3.66663C9.26163 3.66663 10.1519 4.03538 10.8082 4.69175C11.4646 5.34813 11.8334 6.23837 11.8334 7.16663V11.25H9.50004V7.16663C9.50004 6.85721 9.37712 6.56046 9.15833 6.34167C8.93954 6.12288 8.64279 5.99996 8.33337 5.99996C8.02396 5.99996 7.72721 6.12288 7.50842 6.34167C7.28962 6.56046 7.16671 6.85721 7.16671 7.16663V11.25H4.83337V7.16663C4.83337 6.23837 5.20212 5.34813 5.8585 4.69175C6.51488 4.03538 7.40512 3.66663 8.33337 3.66663Z" fill="#101010"/>
<path d="M0.166687 4.25H2.50002V11.25H0.166687V4.25Z" fill="#101010"/>
<path d="M1.33335 2.49996C1.97769 2.49996 2.50002 1.97763 2.50002 1.33329C2.50002 0.68896 1.97769 0.166626 1.33335 0.166626C0.689021 0.166626 0.166687 0.68896 0.166687 1.33329C0.166687 1.97763 0.689021 2.49996 1.33335 2.49996Z" fill="#101010"/>
</svg>
