<svg width="14" height="14" viewBox="0 0 14 14" fill="none" xmlns="http://www.w3.org/2000/svg">
<path d="M9.33337 4.66663C10.2616 4.66663 11.1519 5.03538 11.8082 5.69175C12.4646 6.34813 12.8334 7.23837 12.8334 8.16663V12.25H10.5V8.16663C10.5 7.85721 10.3771 7.56046 10.1583 7.34167C9.93954 7.12288 9.64279 6.99996 9.33337 6.99996C9.02396 6.99996 8.72721 7.12288 8.50842 7.34167C8.28962 7.56046 8.16671 7.85721 8.16671 8.16663V12.25H5.83337V8.16663C5.83337 7.23837 6.20212 6.34813 6.8585 5.69175C7.51488 5.03538 8.40512 4.66663 9.33337 4.66663Z" fill="#101010"/>
<path d="M1.16669 5.25H3.50002V12.25H1.16669V5.25Z" fill="#101010"/>
<path d="M2.33335 3.49996C2.97769 3.49996 3.50002 2.97763 3.50002 2.33329C3.50002 1.68896 2.97769 1.16663 2.33335 1.16663C1.68902 1.16663 1.16669 1.68896 1.16669 2.33329C1.16669 2.97763 1.68902 3.49996 2.33335 3.49996Z" fill="#101010"/>
</svg>
