<svg width="14" height="14" viewBox="0 0 14 14" fill="none" xmlns="http://www.w3.org/2000/svg">
<path d="M13.4166 1.75001C12.858 2.14403 12.2395 2.4454 11.585 2.64251C11.2337 2.23855 10.7668 1.95224 10.2474 1.8223C9.72807 1.69235 9.18135 1.72504 8.68119 1.91594C8.18103 2.10684 7.75157 2.44674 7.45089 2.88967C7.1502 3.33261 6.9928 3.8572 6.99998 4.39251V4.97584C5.97485 5.00242 4.95906 4.77506 4.04307 4.31402C3.12708 3.85297 2.33933 3.17254 1.74998 2.33334C1.74998 2.33334 -0.583354 7.58334 4.66665 9.91667C3.46529 10.7322 2.03415 11.141 0.583313 11.0833C5.83331 14 12.25 11.0833 12.25 4.37501C12.2494 4.21252 12.2338 4.05044 12.2033 3.89084C12.7987 3.30371 13.2188 2.56242 13.4166 1.75001Z" fill="#101010"/>
</svg>
