<svg width="26" height="19" viewBox="0 0 26 19" fill="none" xmlns="http://www.w3.org/2000/svg">
<path d="M20.6049 8.05005C20.6049 7.61505 20.7499 7.18005 20.7499 6.60005C20.7499 3.41005 18.1399 0.800049 14.9499 0.800049C12.6299 0.800049 10.745 2.10505 9.72995 3.99005C9.43995 3.84505 8.85995 3.70005 8.42495 3.70005C6.39495 3.70005 4.79995 5.29505 4.79995 7.32505C4.79995 7.61505 4.79995 7.90505 4.94495 8.05005C2.33495 8.48505 0.449951 10.515 0.449951 13.125C0.449951 15.88 2.76995 18.2 5.52495 18.2H20.0249C22.7799 18.2 25.0999 15.88 25.0999 13.125C25.0999 10.515 23.2149 8.34005 20.6049 8.05005Z" fill="white"/>
</svg>
