<svg width="48" height="55" viewBox="0 0 48 55" fill="none" xmlns="http://www.w3.org/2000/svg">
<path d="M44.8861 19.3155H43.5891V13.0581C43.588 13.0184 43.5842 12.9787 43.5776 12.9395C43.5797 12.6878 43.4907 12.4439 43.327 12.2527L32.9146 0.361555L32.9069 0.353904C32.7747 0.210413 32.6062 0.10532 32.4191 0.0497379L32.3617 0.0306075C32.2822 0.0107908 32.2007 0.000516144 32.1188 0H6.52864C5.3598 0 4.41096 0.950758 4.41096 2.11769V19.3155H3.11394C1.44199 19.3155 0.0875854 20.6699 0.0875854 22.3419V38.082C0.0875854 39.752 1.4439 41.1084 3.11394 41.1084H4.41096V51.8843C4.41096 53.0512 5.3598 54.002 6.52864 54.002H41.4714C42.6383 54.002 43.5891 53.0512 43.5891 51.8843V41.1084H44.8861C46.5581 41.1084 47.9125 39.752 47.9125 38.082V22.3419C47.9125 20.6699 46.5562 19.3155 44.8861 19.3155ZM6.52864 2.11769H31.059V12.9529C31.059 13.5383 31.5334 14.0108 32.1188 14.0108H41.4733V19.3155H6.52864V2.11769ZM32.5262 30.2961C32.5262 33.3225 31.4244 35.4115 29.8959 36.7008C28.2316 38.0839 25.6988 38.742 22.6016 38.742C20.7479 38.742 19.4356 38.6234 18.5422 38.5086V22.977C19.8565 22.7666 21.5686 22.6499 23.3764 22.6499C26.3779 22.6499 28.3253 23.1893 29.85 24.339C31.4932 25.5576 32.5262 27.505 32.5262 30.2961ZM4.91025 38.5794V22.977C6.01213 22.7895 7.56166 22.6499 9.74247 22.6499C11.9482 22.6499 13.5206 23.0726 14.5747 23.9163C15.5828 24.714 16.262 26.0282 16.262 27.5758C16.262 29.1254 15.7474 30.4377 14.8081 31.3291C13.5876 32.4788 11.7817 32.9953 9.66978 32.9953C9.20109 32.9953 8.77832 32.9724 8.4512 32.9246V38.5794H4.91025ZM41.4714 51.3104H6.52864V41.1084H41.4714V51.3104ZM44.5399 25.6992H38.4623V29.3128H44.14V32.2225H38.4623V38.5794H34.8754V22.7666H44.5399V25.6992Z" fill="#ED4C5C"/>
</svg>
