<svg width="14" height="12" viewBox="0 0 14 12" fill="none" xmlns="http://www.w3.org/2000/svg">
<path d="M13.4166 0.750006C12.858 1.14403 12.2395 1.4454 11.585 1.64251C11.2337 1.23855 10.7668 0.952243 10.2474 0.822297C9.72807 0.69235 9.18135 0.725037 8.68119 0.915938C8.18103 1.10684 7.75157 1.44674 7.45089 1.88967C7.1502 2.33261 6.9928 2.8572 6.99998 3.39251V3.97584C5.97485 4.00242 4.95906 3.77506 4.04307 3.31402C3.12708 2.85297 2.33933 2.17254 1.74998 1.33334C1.74998 1.33334 -0.583354 6.58334 4.66665 8.91667C3.46529 9.73215 2.03415 10.141 0.583313 10.0833C5.83331 13 12.25 10.0833 12.25 3.37501C12.2494 3.21252 12.2338 3.05044 12.2033 2.89084C12.7987 2.30371 13.2188 1.56242 13.4166 0.750006Z" fill="#101010"/>
</svg>
